<?xml version="1.0" encoding="utf-8"?>
<!-- Generator: Adobe Illustrator 28.0.0, SVG Export Plug-In . SVG Version: 6.00 Build 0)  -->
<svg version="1.1" id="Layer_1" xmlns="http://www.w3.org/2000/svg" xmlns:xlink="http://www.w3.org/1999/xlink" x="0px" y="0px"
	 viewBox="0 0 160 160" style="enable-background:new 0 0 160 160;" xml:space="preserve">
<style type="text/css">
	.st0{fill:#10103B;}
	.st1{fill:none;stroke:#FFFFFF;stroke-width:2.847;stroke-linecap:round;stroke-linejoin:round;}
	.st2{fill:#FFFFFF;}
</style>
<path class="st0" d="M80,0L80,0c44.2,0,80,35.8,80,80l0,0c0,44.2-35.8,80-80,80l0,0c-44.2,0-80-35.8-80-80l0,0C0,35.8,35.8,0,80,0z"
	/>
<g>
	<path class="st2" d="M80.7,104.5c-4.1,0-7.7-0.6-10.8-1.7c-3.1-1.2-5.6-2.9-7.4-5.3c-1.8-2.4-2.8-5.4-3-9.2c0-0.5,0.2-0.7,0.7-0.7
		h10.5c0.4,0,0.8,0.2,0.8,0.7v4.2l8.6,6l8.6-6c0,0,0-0.9,0-1.4c0-1.6-0.5-2.4-1.5-3.4c-1-0.9-2.3-1.6-4-2.1c-1.8-0.5-3-0.9-5.1-1.4
		c-2-0.5-4-0.9-6-1.5c-2-0.6-3.9-1.4-5.7-2.4c-1.8-1-3.2-2.4-4.3-4.1c-1.1-1.7-1.6-3.8-1.6-6.5c0-2.9,0.7-5.4,2.2-7.6
		c1.5-2.1,3.6-3.8,6.4-5c2.8-1.2,6.8-1.7,10.7-1.7c3.7,0,7.3,0.6,10.1,1.6c2.8,1,5,2.5,6.7,4.6c1.9,2.3,3.1,4.9,3.1,8.7
		c0,0.5-0.2,0.7-0.7,0.7h-9.7c-0.4,0-0.7-0.2-0.7-0.7v-2.8l-8.6-6l-8.6,6c0,0,0,0.8,0,1.4c0,1.6,0.5,2.4,1.6,3.2
		c1.1,0.9,2.6,1.1,4.4,1.5c2,0.5,3.4,0.8,5,1.2c2.2,0.5,4.1,0.9,6.3,1.5c2.1,0.5,4.1,1.4,5.9,2.5c1.8,1,3.2,2.3,4.3,3.9
		c1.1,1.7,1.6,3.8,1.6,6.5c0,3.3-0.8,6.1-2.4,8.4c-1.6,2.3-3.9,4-6.9,5.2C88.3,103.9,84.8,104.5,80.7,104.5z"/>
</g>
<polygon class="st1" points="49.2,116.4 110.8,116.4 138.1,80 110.8,43.6 49.2,43.6 21.9,80 "/>
</svg>
